<svg width="800" height="800" viewBox="0 0 24 24" xmlns="http://www.w3.org/2000/svg">
    <path
        d="M12 2a1 1 0 011 1v.962l.654-.346a1 1 0 01.935 1.768L13 6.224v1.902c.715.184 1.352.56 1.854 1.071l1.648-.951-.067-1.796a1 1 0 011.999-.075l.027.74.833-.481a1 1 0 111 1.732l-.833.48.627.394a1 1 0 11-1.064 1.694l-1.522-.956-1.647.95a4.001 4.001 0 010 2.143l1.647.951 1.522-.956a1 1 0 011.064 1.694l-.627.393.833.481a1 1 0 11-1 1.732l-.832-.48-.028.739a1 1 0 01-1.999-.075l.067-1.796-1.648-.951c-.502.51-1.14.887-1.854 1.071v1.902l1.589.84a1 1 0 01-.935 1.768L13 20.038V21a1 1 0 11-2 0v-.962l-.654.346a1 1 0 11-.935-1.768l1.589-.84v-1.902a3.996 3.996 0 01-1.854-1.072l-1.648.952.067 1.796a1 1 0 01-1.999.074l-.027-.739-.833.48a1 1 0 11-1-1.731l.833-.481-.627-.394a1 1 0 011.064-1.693l1.522.956 1.647-.951a4.004 4.004 0 010-2.142l-1.647-.95-1.522.955a1 1 0 01-1.064-1.693l.627-.394-.833-.48a1 1 0 011-1.733l.833.481.027-.74a1 1 0 011.999.075l-.067 1.796 1.648.952A3.996 3.996 0 0111 8.126V6.224l-1.589-.84a1 1 0 01.935-1.768l.654.346V3a1 1 0 011-1zm0 12a2 2 0 100-4 2 2 0 000 4z"
        fill="#8E9DCC" />
</svg>